<?xml version="1.0" encoding="UTF-8"?>
<!DOCTYPE svg PUBLIC "-//W3C//DTD SVG 1.1//EN" "http://www.w3.org/Graphics/SVG/1.1/DTD/svg11.dtd">
<!-- Creator: CorelDRAW SE (OEM-Version) -->
<svg xmlns="http://www.w3.org/2000/svg" xml:space="preserve" width="40mm" height="46.2771mm" version="1.1" style="shape-rendering:geometricPrecision; text-rendering:geometricPrecision; image-rendering:optimizeQuality; fill-rule:evenodd; clip-rule:evenodd"
viewBox="0 0 1016.85 1176.42"
 xmlns:xlink="http://www.w3.org/1999/xlink">
 <defs>
  <style type="text/css">
   <![CDATA[
    .fil0 {fill:#439C2A}
    .fil2 {fill:#44741A}
    .fil1 {fill:white}
   ]]>
  </style>
 </defs>
 <g id="Ebene_x0020_1">
  <metadata id="CorelCorpID_0Corel-Layer"/>
  <g id="_999466072">
   <rect class="fil0" y="1006.63" width="1016.85" height="169.79"/>
   <g>
    <path class="fil1" d="M115.62 1060.4c-7.41,-0.93 -17.13,-1.74 -26.72,-1.74 -24.53,0 -36.79,7.97 -40.38,29.16l-1.16 6.82c-0.57,3.13 -0.92,6.02 -0.92,8.57 0,15.96 9.6,23.48 26.95,23.48 3.58,0 8.33,-0.46 10.65,-0.8l-0.35 2.31c-1.04,6.59 -3.13,9.49 -14.46,9.49 -7.87,0 -18.05,-0.58 -25.45,-1.04l-2.08 12.14c2.19,0.58 14.23,2.66 27.65,2.66 23.36,0 31.69,-7.75 34.35,-23.25l11.92 -67.8zm-22.34 14l-6.71 36.56c-1.39,0.23 -5.66,0.69 -9.14,0.69 -7.52,0 -10.88,-2.43 -10.88,-9.14 0,-1.85 0.12,-3.82 0.58,-6.36l1.27 -6.71c1.96,-10.77 5.32,-15.5 16.08,-15.5 4.06,-0 7.64,0.34 8.8,0.46l0 0zm101.35 51.94l11.45 -65.94c-9.72,-1.16 -20.48,-1.74 -28.12,-1.74 -23.71,0 -34.59,5.55 -38.98,29.16l-1.51 8.09c-0.69,3.48 -0.92,6.83 -0.92,9.72 0,14.58 7.29,22.33 20.36,22.33 7.98,0 14.35,-1.97 19.55,-4.97l-0.57 3.35 18.74 -0zm-17.35 -15.85c-3.47,1.27 -7.4,2.31 -11.34,2.31 -6.47,0 -9.37,-2.55 -9.37,-8.33 0,-1.74 0.35,-3.94 0.7,-6.71l1.5 -8.1c2.44,-13.42 6.95,-15.74 15.5,-15.74 1.86,0 6.25,0.11 9.49,0.34l-6.48 36.22zm152.59 -35.64c0,-9.25 -3.93,-16.19 -17.81,-16.19 -6.13,0 -13.19,2.08 -21.4,7.17 -2.21,-4.51 -6.36,-7.17 -14.46,-7.17 -7.29,0 -14.81,2.55 -21.18,6.94l0.93 -5.2 -18.86 -0 -11.69 65.94 20.25 0 8.67 -49.29c3.47,-1.61 8.1,-3.35 11.92,-3.35 4.16,0 5.32,1.38 5.32,4.28 0,1.5 -0.35,3.24 -0.69,5.44l-7.52 42.92 20.24 -0 7.52 -42.92c0.35,-2.08 0.82,-4.39 0.82,-6.47 3.93,-1.97 8.56,-3.24 11.68,-3.24 4.63,0 5.79,1.5 5.79,4.39 0,1.5 -0.35,3.25 -0.69,5.32l-7.41 42.92 20.02 0 7.52 -41.88c0.58,-3.12 1.04,-6.47 1.04,-9.6l0 0zm53.91 -14.46l-20.13 0 -11.45 65.94 20.13 0 11.45 -65.94zm4.74 -24.18l-20.82 0 -2.66 15.16 20.82 0 2.66 -15.16zm85.5 39.22c0,-9.49 -3.94,-16.77 -18.75,-16.77 -6.7,0 -14.69,2.32 -21.97,6.82l0.81 -5.09 -18.97 0 -11.57 65.94 20.25 0 8.56 -48.48c5.32,-2.65 10.53,-3.93 14.58,-3.93 4.74,0 6.6,1.74 6.6,5.79 0,1.39 -0.23,3.01 -0.58,5.09l-7.29 41.53 20.24 0 6.83 -39.91c0.57,-3.7 1.28,-7.52 1.28,-10.99l0 0zm93.7 -15.04c-7.4,-0.93 -17.13,-1.74 -26.72,-1.74 -24.53,0 -36.79,7.97 -40.37,29.16l-1.16 6.82c-0.58,3.13 -0.93,6.02 -0.93,8.57 0,15.96 9.6,23.48 26.96,23.48 3.58,0 8.32,-0.46 10.64,-0.8l-0.35 2.31c-1.03,6.59 -3.12,9.49 -14.46,9.49 -7.87,0 -18.05,-0.58 -25.45,-1.04l-2.09 12.14c2.2,0.58 14.23,2.66 27.65,2.66 23.37,0 31.69,-7.75 34.36,-23.25l11.92 -67.8zm-22.34 14l-6.7 36.56c-1.39,0.23 -5.67,0.69 -9.13,0.69 -7.53,0 -10.88,-2.43 -10.88,-9.14 0,-1.85 0.11,-3.82 0.57,-6.36l1.27 -6.71c1.97,-10.77 5.32,-15.5 16.09,-15.5 4.05,-0 7.63,0.34 8.78,0.46l0 0zm61.09 51.94l3.24 -18.97 -20.25 0 -3.24 18.97 20.25 -0z"/>
   </g>
  </g>
  <g>
   <path class="fil0" d="M508.42 876.46c228.38,0 413.52,-185.13 413.52,-413.51 0,-228.37 -185.14,-413.51 -413.52,-413.51 -228.38,0 -413.52,185.13 -413.52,413.51 0,228.37 185.14,413.51 413.52,413.51z"/>
   <rect class="fil1" x="440.58" y="25.87" width="135.69" height="876.12"/>
   <rect class="fil1" transform="matrix(0.378665 -0.655834 0.655847 0.378657 95.1285 303.676)" width="179.17" height="1156.88"/>
   <rect class="fil1" transform="matrix(0.378665 0.655834 -0.655847 0.378657 853.894 186.135)" width="179.17" height="1156.88"/>
   <path class="fil1" d="M546.95 732.07c148.68,-20.89 252.27,-158.36 231.38,-307.04 -20.91,-148.68 -158.38,-252.27 -307.06,-231.38 -148.68,20.9 -252.27,158.36 -231.38,307.04 20.9,148.68 158.37,252.26 307.06,231.38z"/>
   <g>
    <path class="fil2" d="M811.65 462.96c0,-167.46 -135.76,-303.21 -303.22,-303.21 -167.46,0 -303.22,135.75 -303.22,303.21 0,167.46 135.76,303.21 303.22,303.21 167.46,0 303.22,-135.75 303.22,-303.21l0 0zm-37.7 0c0,146.64 -118.87,265.52 -265.52,265.52 -146.65,0 -265.53,-118.87 -265.53,-265.52 0,-146.64 118.88,-265.52 265.53,-265.52 146.64,0 265.52,118.88 265.52,265.52z"/>
   </g>
   <polygon class="fil2" points="311.78,397.87 445.82,378.68 506.6,249.17 567.39,375.48 704.54,399.46 607.9,495.4 631.29,639.29 508.16,568.95 385.04,640.9 405.29,497 "/>
   <g>
    <path class="fil2" d="M971.38 462.96c0,-255.69 -207.27,-462.96 -462.96,-462.96 -255.69,0 -462.96,207.27 -462.96,462.96 0,255.69 207.27,462.96 462.96,462.96 255.69,0 462.96,-207.27 462.96,-462.96l0 0zm-52.13 0c0,226.89 -183.93,410.82 -410.83,410.82 -226.89,0 -410.83,-183.93 -410.83,-410.82 0,-226.89 183.94,-410.82 410.83,-410.82 226.89,-0.01 410.83,183.93 410.83,410.82z"/>
   </g>
  </g>
 </g>
</svg>
