<?xml version="1.0" encoding="UTF-8"?>
<!DOCTYPE svg PUBLIC "-//W3C//DTD SVG 1.1//EN" "http://www.w3.org/Graphics/SVG/1.1/DTD/svg11.dtd">
<!-- Creator: CorelDRAW SE (OEM-Version) -->
<svg xmlns="http://www.w3.org/2000/svg" xml:space="preserve" width="36.4232mm" height="36.4231mm" version="1.1" style="shape-rendering:geometricPrecision; text-rendering:geometricPrecision; image-rendering:optimizeQuality; fill-rule:evenodd; clip-rule:evenodd"
viewBox="0 0 862.74 862.73"
 xmlns:xlink="http://www.w3.org/1999/xlink">
 <defs>
  <style type="text/css">
   <![CDATA[
    .fil0 {fill:#439C2A}
    .fil2 {fill:#44741A}
    .fil1 {fill:white}
   ]]>
  </style>
 </defs>
 <g id="Ebene_x0020_1">
  <metadata id="CorelCorpID_0Corel-Layer"/>
  <g id="_605034896">
   <path class="fil0" d="M431.37 816.65c212.79,0 385.3,-172.5 385.3,-385.29 0,-212.79 -172.51,-385.29 -385.3,-385.29 -212.79,0 -385.3,172.5 -385.3,385.29 0,212.79 172.51,385.29 385.3,385.29z"/>
   <rect class="fil1" x="368.15" y="24.11" width="126.43" height="816.33"/>
   <rect class="fil1" transform="matrix(0.378665 -0.655834 0.655847 0.378657 46.2761 282.953)" width="166.94" height="1077.94"/>
   <rect class="fil1" transform="matrix(0.378665 0.655834 -0.655847 0.378657 753.264 173.433)" width="166.94" height="1077.94"/>
   <path class="fil1" d="M467.26 682.11c138.53,-19.47 235.06,-147.56 215.59,-286.09 -19.48,-138.53 -147.57,-235.06 -286.11,-215.59 -138.54,19.47 -235.06,147.56 -215.59,286.09 19.47,138.54 147.56,235.05 286.1,215.59z"/>
   <g>
    <path class="fil2" d="M713.9 431.37c0,-156.03 -126.49,-282.52 -282.53,-282.52 -156.03,0 -282.53,126.49 -282.53,282.52 0,156.03 126.5,282.52 282.53,282.52 156.03,0 282.53,-126.49 282.53,-282.52l0 0zm-35.13 0c0,136.64 -110.76,247.4 -247.4,247.4 -136.64,0 -247.41,-110.76 -247.41,-247.4 0,-136.64 110.77,-247.4 247.41,-247.4 136.64,0 247.4,110.77 247.4,247.4z"/>
   </g>
   <polygon class="fil2" points="248.14,370.72 373.03,352.84 429.67,232.17 486.31,349.86 614.1,372.2 524.06,461.59 545.85,595.67 431.12,530.12 316.4,597.16 335.27,463.08 "/>
   <g>
    <path class="fil2" d="M862.74 431.37c0,-238.24 -193.13,-431.36 -431.37,-431.36 -238.24,0 -431.37,193.12 -431.37,431.36 0,238.24 193.13,431.37 431.37,431.37 238.24,0 431.37,-193.13 431.37,-431.37l0 0zm-48.57 0c0,211.41 -171.38,382.79 -382.79,382.79 -211.41,0 -382.79,-171.38 -382.79,-382.79 0,-211.41 171.38,-382.78 382.79,-382.78 211.41,-0 382.79,171.38 382.79,382.78z"/>
   </g>
  </g>
 </g>
</svg>
