<?xml version="1.0" encoding="UTF-8"?>
<!DOCTYPE svg PUBLIC "-//W3C//DTD SVG 1.1//EN" "http://www.w3.org/Graphics/SVG/1.1/DTD/svg11.dtd">
<!-- Creator: CorelDRAW SE (OEM-Version) -->
<svg xmlns="http://www.w3.org/2000/svg" xml:space="preserve" width="144.954mm" height="15.0974mm" version="1.1" style="shape-rendering:geometricPrecision; text-rendering:geometricPrecision; image-rendering:optimizeQuality; fill-rule:evenodd; clip-rule:evenodd"
viewBox="0 0 13697.97 1426.68"
 xmlns:xlink="http://www.w3.org/1999/xlink"
 enable-background="new 0 0 278.777 56.555">
 <defs>
  <style type="text/css">
   <![CDATA[
    .fil0 {fill:white}
   ]]>
  </style>
 </defs>
 <g id="Ebene_x0020_1">
  <metadata id="CorelCorpID_0Corel-Layer"/>
  <g id="gaming.itana.de.svg">
   <g>
    <g>
     <path class="fil0" d="M6180.79 481.15l-82.28 448.57c-17.1,2.83 -69.58,8.45 -112.11,8.45 -92.38,0 -133.46,-29.78 -133.46,-112.07 0,-22.7 1.43,-46.88 7.08,-78.13l15.57 -82.34c24.18,-131.99 65.28,-190.2 197.35,-190.2 49.7,0.01 93.7,4.26 107.85,5.71l0 0zm273.96 -171.79c-90.78,-11.33 -210.02,-21.3 -327.86,-21.3 -300.96,0 -451.43,97.91 -495.41,357.76l-14.2 83.71c-7.13,38.38 -11.38,73.88 -11.38,105.14 0,195.82 117.84,288.11 330.78,288.11 44.06,0 102.21,-5.62 130.59,-9.9l-4.3 28.33c-12.7,80.96 -38.28,116.52 -177.42,116.52 -96.54,0 -221.45,-7.23 -312.28,-12.85l-25.52 149.09c26.9,7.02 174.57,32.72 339.24,32.72 286.8,0 389.02,-95.24 421.62,-285.48l146.14 -831.84zm-1149.77 184.54c0,-116.41 -48.31,-205.83 -230,-205.83 -82.34,0 -180.29,28.43 -269.71,83.76l9.9 -62.45 -232.75 0 -142.07 809.16 248.47 0 105.08 -594.84c65.23,-32.63 129.11,-48.25 178.82,-48.25 58.21,0 80.91,21.36 80.91,71.01 0,17.05 -2.83,36.88 -7.08,62.45l-89.46 509.63 248.48 0 83.76 -489.76c7.08,-45.47 15.63,-92.31 15.63,-134.89l0 0zm-1049.09 -481.25l-255.55 0 -32.63 185.99 255.55 0.01 32.63 -186zm-58.2 296.72l-247.06 0 -140.49 809.16 247.06 0 140.49 -809.16zm-661.5 177.47c0,-113.59 -48.25,-198.75 -218.67,-198.75 -75.21,0 -161.79,25.58 -262.58,88.01 -27.01,-55.33 -78.04,-88.01 -177.47,-88.01 -89.41,0 -181.72,31.25 -259.76,85.16l11.27 -63.88 -231.32 0 -143.36 809.16 248.38 0 106.46 -604.79c42.63,-19.83 99.43,-41.08 146.31,-41.08 51.03,0 65.23,16.95 65.23,52.5 0,18.4 -4.3,39.76 -8.55,66.71l-92.23 526.66 248.43 0 92.33 -526.66c4.25,-25.51 9.9,-53.96 9.9,-79.45 48.25,-24.13 104.99,-39.76 143.32,-39.76 56.78,0 71.01,18.4 71.01,53.9 0,18.4 -4.25,39.8 -8.5,65.28l-90.89 526.66 245.58 0 92.23 -513.93c7.15,-38.21 12.88,-79.41 12.88,-117.74l0 0zm-1872.48 437.2c-42.53,15.63 -90.83,28.48 -139.11,28.48 -79.45,0 -114.97,-31.25 -114.97,-102.21 0,-21.36 4.25,-48.35 8.5,-82.38l18.46 -99.38c29.78,-164.66 85.16,-193.1 190.24,-193.1 22.65,0 76.61,1.43 116.37,4.25l-79.49 444.34zm212.97 194.5l140.54 -809.16c-119.29,-14.2 -251.3,-21.3 -345.01,-21.3 -290.96,0 -424.42,68.13 -478.38,357.76l-18.5 99.34c-8.45,42.63 -11.27,83.81 -11.27,119.29 0,178.87 89.41,273.95 249.83,273.95 97.96,0 176.04,-24.18 239.92,-61.03l-7.08 41.15 229.96 0zm-1243.56 -637.37l-82.38 448.6c-17.05,2.83 -69.53,8.45 -112.16,8.45 -92.23,0 -133.46,-29.78 -133.46,-112.07 0,-22.7 1.47,-46.88 7.13,-78.13l15.63 -82.34c24.13,-131.99 65.34,-190.2 197.35,-190.2 49.7,-0.02 93.7,4.23 107.9,5.68l0 0zm273.95 -171.79c-90.94,-11.33 -210.07,-21.3 -327.91,-21.3 -301.01,0 -451.43,97.91 -495.41,357.76l-14.25 83.71c-7.08,38.38 -11.33,73.88 -11.33,105.14 0,195.82 117.84,288.11 330.71,288.11 44.06,0 102.31,-5.62 130.69,-9.9l-4.25 28.33c-12.85,80.96 -38.33,116.52 -177.47,116.52 -96.59,0 -221.45,-7.23 -312.34,-12.85l-25.51 149.08c26.9,7.02 174.57,32.72 339.24,32.72 286.71,0 388.97,-95.24 421.62,-285.48l146.21 -831.83z"/>
    </g>
   </g>
  </g>
  <path class="fil0" d="M13600.23 673.93l-456.94 0 1.48 -12.94c0,-135.13 38.7,-268.73 228.4,-268.73 188.26,0 227.05,129.35 227.05,268.73l0 12.94zm97.74 79.08l0 -47.41c0,-257.27 -99.19,-395.24 -324.74,-395.24 -224.11,0 -323.3,140.95 -323.3,385.14l0 54.57c0,260.2 86.1,379.46 351.98,379.46 116.33,0 214.11,-15.78 270.17,-28.68l0 -74.83c-71.94,11.45 -181.23,21.56 -267.33,21.56 -212.75,0 -261.55,-99.18 -261.55,-277.33l0 -17.23 554.77 0zm-1136.69 238.55c-59,28.68 -130.85,57.55 -212.75,57.55 -146.5,0 -208.33,-77.62 -208.33,-274.5l0 -96.39c0,-232.87 80.46,-287.45 235.66,-287.45 40.19,0 110.64,5.77 185.42,15.78l0 585zm93.4 119.34l0 -1110.9 -93.4 0 0 327.58c-77.63,-12.95 -136.53,-17.23 -191.2,-17.23 -198.23,0 -324.74,84.75 -324.74,367.86l0 96.2c0,250.1 99.19,354.96 287.45,354.96 96.2,0 176.81,-33.15 231.38,-63.19l0 44.47 90.52 0.24zm-995.88 -195.53l-93.36 0 0 195.53 93.36 0 0 -195.53zm-600.59 70.36c-43.26,27.47 -139.46,70.45 -237.15,70.45 -97.83,0 -158.09,-37.44 -158.09,-145.23l0 -27.24c0,-139.32 74.64,-165.21 262.9,-165.21l132.34 0 0 267.24zm94.86 125.16l0 -531.72c0,-183.93 -45.96,-268.82 -294.57,-268.82 -100.68,0 -162.38,14.43 -235.81,27.33l0 69.01c87.73,-10.1 152.27,-15.78 228.54,-15.78 173.83,0 206.98,35.99 206.98,188.26l0 66.17 -132.34 0c-228.4,0 -356.32,40.18 -356.32,238.5l0 21.7c0,155.25 80.32,224.12 232.87,224.12 116.32,0 205.49,-41.77 260.07,-74.64l0 56.07 90.57 -0.19zm-968.6 0l0 -494.38c0,-199.72 -45.96,-306.17 -247.17,-306.17 -93.5,0 -182.58,37.44 -268.82,83.39l0 -63.19 -93.4 0 0 780.39 93.4 -0.05 0 -643.86c97.69,-45.95 185.28,-74.64 260.07,-74.64 125.07,0 161.03,57.42 161.03,224.22l0 494.43 94.9 -0.14zm-1125.24 -125.16c-43.12,27.47 -139.46,70.45 -237.15,70.45 -97.69,0 -158.09,-37.44 -158.09,-145.23l0 -27.24c0,-139.32 74.63,-165.21 263.04,-165.21l132.2 0 0 267.24zm94.9 125.16l0 -531.72c0,-183.93 -45.95,-268.82 -294.57,-268.82 -100.53,0 -162.37,14.43 -235.66,27.33l0 69.01c87.59,-10.1 152.27,-15.78 228.4,-15.78 173.82,0 206.98,35.99 206.98,188.26l0 66.17 -132.25 0c-228.39,0 -356.4,40.18 -356.4,238.5l0 21.7c0,155.25 80.47,224.12 232.87,224.12 116.32,0 205.49,-41.77 260.06,-74.64l0 56.07 90.57 -0.19zm-899.63 1.4l0 -66.17c-34.5,4.28 -91.92,7.26 -130.75,7.26 -80.32,0 -93.41,-23.14 -93.41,-122.23l0.05 -521.61 224.11 0 0 -78.98 -224.11 0 0 -209.96 -93.41 0 0 209.82 -169.63 0 0 71.85 169.63 7.13 0 525.95c0,143.79 44.47,194.03 176.81,194.03 48.8,0.14 109.06,-9.96 140.72,-17.09zm-842.12 -1112.29l-96.2 0 0 178.15 96.2 0 0 -178.15zm-1.45 330.56l-94.9 0 0 780.39 94.9 -0.05 0 -780.34zm-487.54 780.34l37.07 -217.6 -232.08 0.05 -37.2 217.6 232.21 -0.05z"/>
 </g>
</svg>
