<?xml version="1.0" encoding="UTF-8" standalone="no"?>
<!-- Generator: Adobe Illustrator 15.0.2, SVG Export Plug-In . SVG Version: 6.00 Build 0)  -->

<svg
   xmlns:dc="http://purl.org/dc/elements/1.1/"
   xmlns:cc="http://creativecommons.org/ns#"
   xmlns:rdf="http://www.w3.org/1999/02/22-rdf-syntax-ns#"
   xmlns:svg="http://www.w3.org/2000/svg"
   xmlns="http://www.w3.org/2000/svg"
   xmlns:xlink="http://www.w3.org/1999/xlink"
   xmlns:sodipodi="http://sodipodi.sourceforge.net/DTD/sodipodi-0.dtd"
   xmlns:inkscape="http://www.inkscape.org/namespaces/inkscape"
   version="1.1"
   id="Ebene_1"
   x="0px"
   y="0px"
   width="151.01px"
   height="15.802px"
   viewBox="0 0 151.01 15.802"
   enable-background="new 0 0 151.01 15.802"
   xml:space="preserve"
   sodipodi:docname="Logo-red.svg"
   inkscape:version="0.92.4 (5da689c313, 2019-01-14)"><metadata
   id="metadata19"><rdf:RDF><cc:Work
       rdf:about=""><dc:format>image/svg+xml</dc:format><dc:type
         rdf:resource="http://purl.org/dc/dcmitype/StillImage" /><dc:title></dc:title></cc:Work></rdf:RDF></metadata><defs
   id="defs17" /><sodipodi:namedview
   pagecolor="#ffffff"
   bordercolor="#666666"
   borderopacity="1"
   objecttolerance="10"
   gridtolerance="10"
   guidetolerance="10"
   inkscape:pageopacity="0"
   inkscape:pageshadow="2"
   inkscape:window-width="1278"
   inkscape:window-height="714"
   id="namedview15"
   showgrid="false"
   inkscape:zoom="2.3177274"
   inkscape:cx="75.504997"
   inkscape:cy="7.901"
   inkscape:window-x="1614"
   inkscape:window-y="194"
   inkscape:window-maximized="0"
   inkscape:current-layer="Ebene_1" />
<polygon
   fill="#E1001A"
   points="0,0 0,15.802 150.987,15.802 151.01,0 "
   id="polygon2" />
<g
   id="g12">
	<defs
   id="defs5">
		<rect
   id="SVGID_1_"
   width="151.01"
   height="15.802" />
	</defs>
	<clipPath
   id="SVGID_2_">
		<use
   xlink:href="#SVGID_1_"
   overflow="visible"
   id="use7" />
	</clipPath>
	<path
   clip-path="url(#SVGID_2_)"
   fill="#FFFFFF"
   d="M117.842,7.715h-3.709l0.012-0.105c0-1.097,0.314-2.181,1.854-2.181   c1.528,0,1.843,1.05,1.843,2.181V7.715z M118.635,8.356V7.972c0-2.088-0.805-3.208-2.636-3.208c-1.819,0-2.624,1.144-2.624,3.126   v0.443c0,2.112,0.699,3.08,2.857,3.08c0.944,0,1.738-0.128,2.193-0.233v-0.606c-0.584,0.093-1.471,0.175-2.17,0.175   c-1.727,0-2.123-0.805-2.123-2.251v-0.14H118.635z M109.41,10.292c-0.479,0.233-1.062,0.467-1.727,0.467   c-1.189,0-1.691-0.63-1.691-2.228V7.75c0-1.89,0.653-2.333,1.913-2.333c0.326,0,0.898,0.047,1.505,0.128V10.292z M110.167,11.261   V2.245h-0.758v2.659c-0.63-0.105-1.108-0.14-1.552-0.14c-1.609,0-2.636,0.688-2.636,2.986v0.781c0,2.03,0.805,2.881,2.333,2.881   c0.781,0,1.435-0.269,1.878-0.513v0.361H110.167z M102.084,9.674h-0.758v1.587h0.758V9.674z M97.209,10.246   c-0.351,0.223-1.132,0.572-1.925,0.572c-0.794,0-1.283-0.304-1.283-1.179V9.417c0-1.131,0.606-1.341,2.134-1.341h1.074V10.246z    M97.979,11.261V6.945c0-1.493-0.373-2.182-2.391-2.182c-0.817,0-1.318,0.117-1.914,0.222v0.56   c0.712-0.082,1.236-0.128,1.855-0.128c1.411,0,1.68,0.292,1.68,1.528v0.537h-1.074c-1.854,0-2.892,0.326-2.892,1.936v0.176   c0,1.26,0.652,1.819,1.89,1.819c0.944,0,1.668-0.339,2.111-0.606v0.455H97.979z M90.118,11.261V7.249   c0-1.621-0.373-2.485-2.006-2.485c-0.759,0-1.482,0.304-2.182,0.677V4.927h-0.758v6.334h0.758V6.035   c0.793-0.373,1.504-0.606,2.111-0.606c1.015,0,1.307,0.466,1.307,1.82v4.013H90.118z M80.985,10.246   c-0.35,0.223-1.132,0.572-1.925,0.572s-1.283-0.304-1.283-1.179V9.417c0-1.131,0.606-1.341,2.135-1.341h1.073V10.246z    M81.754,11.261V6.945c0-1.493-0.373-2.182-2.391-2.182c-0.816,0-1.318,0.117-1.913,0.222v0.56   c0.711-0.082,1.236-0.128,1.854-0.128c1.411,0,1.68,0.292,1.68,1.528v0.537h-1.073c-1.854,0-2.893,0.326-2.893,1.936v0.176   c0,1.26,0.653,1.819,1.89,1.819c0.944,0,1.668-0.339,2.111-0.606v0.455H81.754z M74.453,11.273v-0.537   c-0.28,0.035-0.746,0.059-1.062,0.059c-0.653,0-0.758-0.188-0.758-0.992V5.569h1.819V4.927h-1.819V3.224h-0.758v1.703h-1.376v0.583   l1.376,0.058v4.269c0,1.167,0.362,1.575,1.435,1.575C73.707,11.413,74.196,11.331,74.453,11.273 M67.618,2.245h-0.781v1.446h0.781   V2.245z M67.606,4.927h-0.77v6.334h0.77V4.927z M63.648,11.261l0.301-1.766h-1.884l-0.302,1.766H63.648z M61.183,5.124h-1.938   l-1.389,3.144c-0.258,0.582-0.431,1.077-0.646,1.636c-0.032-0.56-0.043-1.098-0.097-1.636l-0.345-3.144H54.82l1.141,6.073   l-0.162,0.322c-0.301,0.561-0.463,0.754-1.033,0.754c-0.302,0-0.549,0-1.077-0.021l-0.205,1.195c0.409,0.086,1.044,0.15,1.701,0.15   c1.68,0,2.164-0.689,2.961-2.305L61.183,5.124z M52.709,5.124h-1.367l0.28-1.55h-1.874l-0.28,1.55h-1.077l-0.194,1.238l1.044,0.097   l-0.527,2.939c-0.043,0.227-0.054,0.432-0.054,0.613c0,0.938,0.485,1.411,1.572,1.411c0.636,0,1.228-0.13,1.4-0.173l0.183-1.151   c-0.151,0.011-0.517,0.043-0.851,0.043s-0.452-0.054-0.452-0.269c0-0.087,0.011-0.205,0.054-0.432l0.549-2.982h1.367L52.709,5.124z    M46.389,2.874h-1.938l-0.248,1.41h1.938L46.389,2.874z M45.948,5.124h-1.874l-1.066,6.138h1.874L45.948,5.124z M41.426,2.874   h-1.863l-1.475,8.388h1.874L41.426,2.874z M36.538,2.874H34.6l-0.248,1.41h1.938L36.538,2.874z M36.097,5.124h-1.874l-1.066,6.138   h1.874L36.097,5.124z M29.185,7.105c0,0.172-0.022,0.388-0.065,0.635l-0.14,0.753c-0.226,1.185-0.528,1.496-1.475,1.496   c-0.355,0-0.657-0.021-0.851-0.043l0.614-3.38c0.323-0.15,0.818-0.183,1.044-0.183C28.926,6.384,29.185,6.577,29.185,7.105    M31.047,7.019c0-1.357-0.711-2.068-2.24-2.068c-0.441,0-0.904,0.065-1.292,0.226l0.409-2.304h-1.874l-1.475,8.376   c1.163,0.13,1.809,0.173,2.67,0.173c2.067,0,3.176-0.657,3.574-2.778l0.14-0.753C31.015,7.579,31.047,7.288,31.047,7.019    M20.614,7.18c0,0.183-0.011,0.377-0.065,0.678L20.42,8.526c-0.215,1.087-0.506,1.464-1.346,1.464   c-0.636,0-0.883-0.215-0.883-0.764c0-0.215,0.011-0.431,0.065-0.7l0.129-0.667c0.205-1.087,0.517-1.464,1.335-1.464   C20.41,6.394,20.614,6.664,20.614,7.18 M22.477,7.159c0-1.529-0.937-2.196-2.595-2.196c-1.777,0-2.929,0.7-3.327,2.724   l-0.118,0.592c-0.076,0.366-0.076,0.657-0.076,0.948c0,1.465,0.883,2.196,2.573,2.196c1.798,0,2.982-0.71,3.337-2.735l0.119-0.678   C22.434,7.783,22.477,7.428,22.477,7.159 M14.014,6.47c0-0.862-0.366-1.507-1.658-1.507c-0.57,0-1.227,0.194-1.992,0.667   C10.16,5.21,9.772,4.962,9.019,4.962c-0.678,0-1.378,0.237-1.971,0.646l0.086-0.484H5.379l-1.088,6.138h1.885l0.807-4.587   c0.323-0.151,0.754-0.312,1.109-0.312c0.388,0,0.496,0.129,0.496,0.398c0,0.14-0.032,0.301-0.065,0.506l-0.7,3.995h1.884l0.7-3.995   c0.033-0.193,0.076-0.409,0.076-0.603c0.366-0.183,0.797-0.302,1.087-0.302c0.431,0,0.538,0.14,0.538,0.409   c0,0.14-0.032,0.302-0.064,0.495l-0.689,3.995h1.862l0.7-3.898C13.971,7.073,14.014,6.76,14.014,6.47"
   id="path10" />
</g>
</svg>