<?xml version="1.0" encoding="utf-8"?>
<!-- Generator: Adobe Illustrator 15.0.2, SVG Export Plug-In . SVG Version: 6.00 Build 0)  -->
<!DOCTYPE svg PUBLIC "-//W3C//DTD SVG 1.1//EN" "http://www.w3.org/Graphics/SVG/1.1/DTD/svg11.dtd">
<svg version="1.1" id="Ebene_1" xmlns="http://www.w3.org/2000/svg" xmlns:xlink="http://www.w3.org/1999/xlink" x="0px" y="0px"
	 width="114.344px" height="11.353px" viewBox="0 0 114.344 11.353" enable-background="new 0 0 114.344 11.353"
	 xml:space="preserve">
<path fill="#FFFFFF" d="M113.551,5.47h-3.709l0.012-0.105c0-1.097,0.314-2.181,1.854-2.181c1.528,0,1.843,1.05,1.843,2.181V5.47z
	 M114.344,6.112V5.727c0-2.088-0.805-3.208-2.636-3.208c-1.819,0-2.624,1.144-2.624,3.126v0.443c0,2.112,0.699,3.08,2.857,3.08
	c0.944,0,1.738-0.128,2.193-0.233V8.328c-0.584,0.093-1.471,0.175-2.17,0.175c-1.727,0-2.123-0.805-2.123-2.251v-0.14H114.344z
	 M105.118,8.048c-0.479,0.233-1.062,0.467-1.727,0.467c-1.189,0-1.691-0.63-1.691-2.228V5.505c0-1.89,0.653-2.333,1.913-2.333
	c0.326,0,0.898,0.047,1.505,0.128V8.048z M105.876,9.017V0h-0.758v2.659c-0.63-0.105-1.108-0.14-1.552-0.14
	c-1.609,0-2.636,0.688-2.636,2.986v0.781c0,2.03,0.805,2.881,2.333,2.881c0.781,0,1.435-0.269,1.878-0.513v0.361H105.876z
	 M97.793,7.43h-0.758v1.587h0.758V7.43z M92.918,8.001c-0.351,0.223-1.132,0.572-1.925,0.572c-0.794,0-1.283-0.304-1.283-1.179
	V7.173c0-1.131,0.606-1.341,2.134-1.341h1.074V8.001z M93.688,9.017V4.701c0-1.493-0.373-2.182-2.391-2.182
	c-0.817,0-1.318,0.117-1.914,0.222v0.56c0.712-0.082,1.236-0.128,1.855-0.128c1.411,0,1.68,0.292,1.68,1.528v0.537h-1.074
	c-1.854,0-2.892,0.326-2.892,1.936v0.176c0,1.26,0.652,1.819,1.89,1.819c0.944,0,1.668-0.339,2.111-0.606v0.455H93.688z
	 M85.826,9.017V5.004c0-1.621-0.373-2.485-2.006-2.485c-0.759,0-1.482,0.304-2.182,0.677V2.683h-0.758v6.334h0.758V3.791
	c0.793-0.373,1.504-0.606,2.111-0.606c1.015,0,1.307,0.466,1.307,1.82v4.013H85.826z M76.693,8.001
	c-0.35,0.223-1.132,0.572-1.925,0.572s-1.283-0.304-1.283-1.179V7.173c0-1.131,0.606-1.341,2.135-1.341h1.073V8.001z M77.463,9.017
	V4.701c0-1.493-0.373-2.182-2.391-2.182c-0.816,0-1.318,0.117-1.913,0.222v0.56c0.711-0.082,1.236-0.128,1.854-0.128
	c1.411,0,1.68,0.292,1.68,1.528v0.537H75.62c-1.854,0-2.893,0.326-2.893,1.936v0.176c0,1.26,0.653,1.819,1.89,1.819
	c0.944,0,1.668-0.339,2.111-0.606v0.455H77.463z M70.161,9.028V8.491C69.881,8.526,69.415,8.55,69.1,8.55
	c-0.652,0-0.758-0.188-0.758-0.992V3.324h1.819V2.683h-1.819V0.979h-0.758v1.703h-1.377v0.583l1.377,0.058v4.269
	c0,1.167,0.361,1.575,1.435,1.575C69.415,9.168,69.904,9.086,70.161,9.028 M63.326,0h-0.781v1.446h0.781V0z M63.314,2.683h-0.77
	v6.334h0.77V2.683z M59.357,9.017l0.301-1.766h-1.884l-0.302,1.766H59.357z M56.892,2.879h-1.938l-1.389,3.144
	c-0.258,0.582-0.431,1.077-0.646,1.636c-0.032-0.56-0.043-1.098-0.097-1.636l-0.345-3.144h-1.949l1.141,6.073l-0.162,0.322
	c-0.301,0.561-0.463,0.754-1.033,0.754c-0.302,0-0.549,0-1.077-0.021l-0.205,1.195c0.409,0.086,1.044,0.15,1.701,0.15
	c1.68,0,2.164-0.689,2.961-2.305L56.892,2.879z M48.418,2.879h-1.367l0.28-1.55h-1.874l-0.28,1.55h-1.077l-0.194,1.238l1.044,0.097
	l-0.527,2.939C44.381,7.38,44.37,7.585,44.37,7.767c0,0.938,0.485,1.411,1.572,1.411c0.636,0,1.228-0.13,1.4-0.173l0.183-1.151
	c-0.151,0.011-0.517,0.043-0.851,0.043s-0.452-0.054-0.452-0.269c0-0.087,0.011-0.205,0.054-0.432l0.549-2.982h1.367L48.418,2.879z
	 M42.098,0.629H40.16l-0.248,1.41h1.938L42.098,0.629z M41.657,2.879h-1.874l-1.066,6.138h1.874L41.657,2.879z M37.135,0.629h-1.863
	l-1.475,8.388h1.874L37.135,0.629z M32.247,0.629h-1.938l-0.248,1.41h1.938L32.247,0.629z M31.805,2.879h-1.874l-1.066,6.138h1.874
	L31.805,2.879z M24.893,4.86c0,0.172-0.022,0.388-0.065,0.635l-0.14,0.753c-0.226,1.185-0.528,1.496-1.475,1.496
	c-0.355,0-0.657-0.021-0.851-0.043l0.614-3.38c0.323-0.15,0.818-0.183,1.044-0.183C24.635,4.139,24.893,4.333,24.893,4.86
	 M26.756,4.774c0-1.357-0.711-2.068-2.24-2.068c-0.441,0-0.904,0.065-1.292,0.226l0.409-2.304H21.76l-1.475,8.376
	c1.163,0.13,1.809,0.173,2.67,0.173c2.067,0,3.176-0.657,3.574-2.778l0.14-0.753C26.724,5.334,26.756,5.043,26.756,4.774
	 M16.323,4.936c0,0.183-0.011,0.377-0.065,0.678l-0.129,0.667c-0.215,1.087-0.506,1.464-1.346,1.464
	c-0.636,0-0.883-0.215-0.883-0.764c0-0.215,0.011-0.431,0.065-0.7l0.129-0.667c0.205-1.087,0.517-1.464,1.335-1.464
	C16.118,4.149,16.323,4.419,16.323,4.936 M18.186,4.914c0-1.529-0.937-2.196-2.595-2.196c-1.777,0-2.929,0.7-3.327,2.724
	l-0.118,0.592C12.07,6.4,12.07,6.69,12.07,6.981c0,1.465,0.883,2.196,2.573,2.196c1.798,0,2.982-0.71,3.337-2.735l0.119-0.678
	C18.142,5.539,18.186,5.183,18.186,4.914 M9.723,4.225c0-0.862-0.366-1.507-1.658-1.507c-0.57,0-1.227,0.194-1.992,0.667
	C5.868,2.965,5.48,2.718,4.727,2.718c-0.678,0-1.378,0.237-1.971,0.646l0.086-0.484H1.088L0,9.017h1.885L2.692,4.43
	c0.323-0.151,0.754-0.312,1.109-0.312c0.388,0,0.496,0.129,0.496,0.398c0,0.14-0.032,0.301-0.065,0.506l-0.7,3.995h1.884l0.7-3.995
	c0.033-0.193,0.076-0.409,0.076-0.603c0.366-0.183,0.797-0.302,1.087-0.302c0.431,0,0.538,0.14,0.538,0.409
	c0,0.14-0.032,0.302-0.064,0.495L7.063,9.017h1.862l0.7-3.898C9.68,4.828,9.723,4.516,9.723,4.225"/>
</svg>
