<?xml version="1.0" encoding="UTF-8"?>
<!DOCTYPE svg PUBLIC "-//W3C//DTD SVG 1.1//EN" "http://www.w3.org/Graphics/SVG/1.1/DTD/svg11.dtd">
<!-- Creator: CorelDRAW SE (OEM-Version) -->
<svg xmlns="http://www.w3.org/2000/svg" xml:space="preserve" width="36.4236mm" height="36.4241mm" version="1.1" style="shape-rendering:geometricPrecision; text-rendering:geometricPrecision; image-rendering:optimizeQuality; fill-rule:evenodd; clip-rule:evenodd"
viewBox="0 0 4278.75 4278.81"
 xmlns:xlink="http://www.w3.org/1999/xlink">
 <defs>
  <style type="text/css">
   <![CDATA[
    .fil1 {fill:black}
    .fil2 {fill:#E2001A}
    .fil0 {fill:white}
   ]]>
  </style>
 </defs>
 <g id="Ebene_x0020_1">
  <metadata id="CorelCorpID_0Corel-Layer"/>
  <g id="_996718968">
   <path class="fil0" d="M2139.4 4278.73c1181.52,0 2139.35,-957.81 2139.35,-2139.38 0,-1181.57 -957.81,-2139.33 -2139.35,-2139.33 -1181.57,0 -2139.4,957.78 -2139.4,2139.35 0,1181.57 957.85,2139.35 2139.4,2139.35z"/>
   <path class="fil1" d="M4278.75 2139.41c0,-1181.58 -957.81,-2139.41 -2139.35,-2139.41 -1181.55,0 -2139.38,957.83 -2139.38,2139.41 0,314.5 67.89,613.18 189.79,882.16l178.12 -1005.31 141.41 -798.03 568.29 0 -27.89 156.88c191.74,-132.48 418.36,-209.19 638,-209.19 244.05,0 369.58,80.19 435.82,216.17 247.54,-153.39 460.21,-216.17 645.02,-216.17 418.34,0 536.91,209.19 536.91,488.12 0,66.57 -7.06,136.6 -17.3,205.19 -1.22,8.14 -2.44,16.2 -3.76,24.32 -3.25,20.12 -6.66,40.18 -10.31,59.89l-226.63 1262.08 -603.15 0.01 98.49 -570.95 124.64 -722.52c10.46,-62.77 20.92,-115.08 20.92,-160.4 0,-87.16 -34.84,-132.47 -174.3,-132.47 -94.13,0 -233.59,38.34 -352.13,97.61 0,26.29 -2.51,53.86 -6.17,81.58 -4.97,38.41 -12.19,77.2 -18.24,113.64l-226.6 1293.5 -610.15 0.01 226.63 -1293.5c1.82,-11.54 3.62,-22.5 5.39,-33.23 1.56,-9.4 3.03,-18.51 4.45,-27.34 0.82,-4.99 1.6,-9.94 2.33,-14.75 1.56,-9.96 2.95,-19.58 4.17,-28.91 0.42,-3.36 0.83,-6.66 1.22,-9.99 2.04,-17.53 3.36,-34.03 3.36,-49.64 0,-87.16 -34.88,-128.98 -160.4,-128.98 -115.05,0 -254.49,52.3 -359.1,101.1l-111.74 634.72 -149.75 850.54 -483.15 0c369.39,641.43 1061.88,1073.27 1855.2,1073.27 793.35,0 1485.83,-431.84 1855.2,-1073.27l-399.55 0 97.61 -571.77 528.57 0c37.59,-158.75 57.53,-324.22 57.53,-494.36z"/>
   <path class="fil2" d="M4012.8 2139.41c0,-1034.65 -838.75,-1873.42 -1873.4,-1873.42 -1034.66,0 -1873.42,838.79 -1873.42,1873.42 0,105.14 8.81,208.2 25.44,308.59l217.92 -1229.8 568.29 0 -27.89 156.88c191.77,-132.47 418.38,-209.19 638.04,-209.19 244.05,0 369.56,80.2 435.82,216.18 247.54,-153.41 460.22,-216.18 644.98,-216.18 418.36,0 536.91,209.19 536.91,488.13 0,94.13 -13.93,195.23 -31.35,289.38l-226.65 1262.1 -603.14 0 223.13 -1293.5c10.48,-62.75 20.93,-115.06 20.93,-160.37 0,-87.16 -34.84,-132.47 -174.33,-132.47 -94.11,0 -233.6,38.34 -352.12,97.61 0,62.75 -13.93,132.48 -24.38,195.24l-226.64 1293.5 -610.11 0 226.6 -1293.5c10.44,-66.24 20.92,-118.52 20.92,-163.86 0,-87.16 -34.85,-128.98 -160.4,-128.98 -115.03,0 -254.5,52.28 -359.11,101.1l-261.47 1485.26 -168.45 0.01c338.2,487.77 902.01,807.28 1540.52,807.28 637.29,0 1200.13,-321.11 1538.55,-807.28l-82.9 0 97.61 -571.81 253.33 0c43.41,-158.34 66.76,-322.19 66.76,-494.3z"/>
  </g>
 </g>
</svg>
