<?xml version="1.0" encoding="UTF-8"?>
<!DOCTYPE svg PUBLIC "-//W3C//DTD SVG 1.1//EN" "http://www.w3.org/Graphics/SVG/1.1/DTD/svg11.dtd">
<!-- Creator: CorelDRAW SE (OEM-Version) -->
<svg xmlns="http://www.w3.org/2000/svg" xml:space="preserve" width="40mm" height="46.2774mm" version="1.1" style="shape-rendering:geometricPrecision; text-rendering:geometricPrecision; image-rendering:optimizeQuality; fill-rule:evenodd; clip-rule:evenodd"
viewBox="0 0 4626.66 5352.74"
 xmlns:xlink="http://www.w3.org/1999/xlink">
 <defs>
  <style type="text/css">
   <![CDATA[
    .fil2 {fill:black}
    .fil0 {fill:#E2001A}
    .fil1 {fill:white}
   ]]>
  </style>
 </defs>
 <g id="Ebene_x0020_1">
  <metadata id="CorelCorpID_0Corel-Layer"/>
  <g id="_999464488">
   <polygon class="fil0" points="-0,4580.21 -0,5352.74 4625.92,5352.74 4626.66,4580.21 "/>
   <g>
    <path class="fil1" d="M3090.63 5124.84l14.76 -86.31 -92.12 0 -14.75 86.31 92.11 0zm-109.99 -300l-94.75 0 -67.91 153.71c-12.63,28.41 -21.04,52.64 -31.58,79.99 -1.55,-27.39 -2.09,-53.69 -4.71,-79.99l-16.88 -153.71 -95.26 0 55.76 296.87 -7.89 15.82c-14.74,27.38 -22.65,36.83 -50.52,36.83 -14.76,0 -26.87,0 -52.64,-1.04l-10.02 58.42c20,4.22 51.07,7.37 83.16,7.37 82.11,0 105.78,-33.69 144.76,-112.64l148.47 -301.63zm-414.27 0l-66.87 0 13.67 -75.82 -91.57 0.01 -13.67 75.82 -52.63 -0.01 -9.46 60.51 51.03 4.73 -25.77 143.7c-2.13,11.08 -2.64,21.06 -2.64,30 0,45.83 23.68,68.97 76.83,68.97 31.06,0 60.03,-6.3 68.44,-8.41l8.98 -56.31c-7.37,0.49 -25.26,2.11 -41.61,2.11 -16.3,0 -22.08,-2.65 -22.08,-13.16 0,-4.22 0.49,-10.02 2.59,-21.07l26.85 -145.8 66.88 0 11.03 -65.27zm-308.99 -110.02l-94.74 0 -12.1 68.97 94.74 0 12.1 -68.97zm-21.57 110.02l-91.57 0 -52.13 300 91.6 0 52.11 -300zm-221.06 -110.02l-91.08 0 -72.12 410.01 91.6 0.01 71.6 -410.03zm-238.98 0l-94.75 0 -12.1 68.97 94.74 0 12.11 -68.97zm-21.58 110.02l-91.6 0 -52.1 300 91.58 0 52.11 -300zm-337.92 96.86c0,8.41 -1.06,18.96 -3.17,31.04l-6.84 36.85c-11.06,57.9 -25.81,73.17 -72.11,73.17 -17.38,0 -32.12,-1.06 -41.61,-2.11l30.02 -165.3c15.79,-7.37 40.01,-8.94 51.07,-8.94 29.98,0 42.63,9.46 42.63,35.28l0 0zm91.06 -4.22c0,-66.31 -34.73,-101.05 -109.48,-101.05 -21.61,0 -44.22,3.15 -63.19,11.06l20 -112.65 -91.56 0 -72.13 409.54c56.85,6.28 88.44,8.41 130.55,8.41 101.05,0 155.26,-32.12 174.76,-135.79l6.84 -36.85c2.61,-15.3 4.21,-29.53 4.21,-42.67l0 0zm-504.79 7.9c0,8.95 -0.53,18.43 -3.17,33.17l-6.32 32.63c-10.51,53.17 -24.75,71.59 -65.8,71.59 -31.04,0 -43.16,-10.54 -43.16,-37.38 0,-10.5 0.51,-21.02 3.16,-34.2l6.3 -32.63c10.01,-53.17 25.28,-71.6 65.28,-71.6 33.68,-0.02 43.7,13.16 43.7,38.42l0 0zm91.06 -1.04c0,-74.76 -45.79,-107.4 -126.86,-107.4 -86.85,0 -143.16,34.23 -162.64,133.14l-5.79 28.95c-3.68,17.92 -3.68,32.16 -3.68,46.34 0,71.62 43.16,107.4 125.8,107.4 87.89,0 145.81,-34.73 163.17,-133.72l5.79 -33.15c2.09,-11.06 4.21,-28.44 4.21,-41.56l0 0zm-408.46 -33.69c0,-42.11 -17.89,-73.7 -81.07,-73.7 -27.89,0 -60.01,9.46 -97.37,32.63 -10.02,-20.53 -28.95,-32.63 -65.8,-32.63 -33.16,0 -67.38,11.59 -96.33,31.57l4.22 -23.65 -85.8 -0.01 -53.17 300 92.11 0 39.5 -224.22c15.78,-7.34 36.82,-15.28 54.21,-15.28 18.93,0 24.22,6.32 24.22,19.5 0,6.84 -1.61,14.74 -3.17,24.72l-34.21 195.27 92.12 0.01 34.21 -195.27c1.57,-9.47 3.69,-19.98 3.69,-29.46 17.89,-8.96 38.93,-14.76 53.17,-14.76 21.04,0 26.3,6.86 26.3,20 0,6.85 -1.58,14.75 -3.16,24.22l-33.69 195.27 91.05 0 34.24 -190.54c2.61,-14.22 4.73,-29.46 4.73,-43.66z"/>
   </g>
  </g>
  <g>
   <path class="fil1" d="M2313.33 4212.97c1163.36,0 2106.47,-943.09 2106.47,-2106.49 0,-1163.41 -943.09,-2106.45 -2106.47,-2106.45 -1163.41,0 -2106.52,943.06 -2106.52,2106.47 0,1163.41 943.13,2106.47 2106.52,2106.47z"/>
   <path class="fil2" d="M4419.8 2106.53c0,-1163.42 -943.09,-2106.53 -2106.47,-2106.53 -1163.38,0 -2106.49,943.11 -2106.49,2106.53 0,309.66 66.84,603.76 186.87,868.6l175.39 -989.86 139.24 -785.77 559.56 0 -27.46 154.47c188.79,-130.45 411.93,-205.98 628.2,-205.98 240.3,0 363.9,78.95 429.12,212.85 243.73,-151.04 453.13,-212.85 635.1,-212.85 411.91,0 528.65,205.98 528.65,480.62 0,65.55 -6.95,134.5 -17.04,202.03 -1.2,8.02 -2.41,15.95 -3.7,23.94 -3.2,19.81 -6.56,39.56 -10.16,58.97l-223.14 1242.69 -593.88 0.01 96.97 -562.17 122.72 -711.42c10.29,-61.8 20.6,-113.31 20.6,-157.93 0,-85.82 -34.31,-130.44 -171.63,-130.44 -92.68,0 -230,37.75 -346.72,96.11 0,25.89 -2.48,53.03 -6.07,80.33 -4.89,37.82 -12.01,76.02 -17.96,111.9l-223.12 1273.61 -600.77 0.01 223.14 -1273.61c1.79,-11.36 3.56,-22.15 5.31,-32.72 1.54,-9.25 2.98,-18.23 4.38,-26.92 0.81,-4.92 1.57,-9.79 2.29,-14.53 1.54,-9.81 2.9,-19.28 4.11,-28.47 0.42,-3.31 0.82,-6.56 1.2,-9.83 2.01,-17.26 3.31,-33.51 3.31,-48.88 0,-85.82 -34.34,-127 -157.93,-127 -113.28,0 -250.58,51.49 -353.58,99.54l-110.02 624.97 -147.45 837.47 -475.72 0c363.71,631.57 1045.56,1056.77 1826.69,1056.77 781.15,0 1463,-425.2 1826.69,-1056.77l-393.4 0 96.11 -562.98 520.44 0c37.01,-156.31 56.64,-319.24 56.64,-486.76z"/>
   <path class="fil0" d="M4157.93 2106.53c0,-1018.74 -825.86,-1844.63 -1844.6,-1844.63 -1018.76,0 -1844.63,825.89 -1844.63,1844.63 0,103.52 8.67,205 25.05,303.84l214.57 -1210.9 559.56 0 -27.46 154.47c188.83,-130.44 411.95,-205.98 628.23,-205.98 240.3,0 363.88,78.97 429.12,212.86 243.73,-151.05 453.15,-212.86 635.07,-212.86 411.93,0 528.65,205.98 528.65,480.63 0,92.68 -13.72,192.23 -30.87,284.93l-223.17 1242.7 -593.87 0 219.7 -1273.61c10.32,-61.79 20.61,-113.3 20.61,-157.91 0,-85.82 -34.31,-130.44 -171.65,-130.44 -92.66,0 -230.01,37.75 -346.71,96.11 0,61.79 -13.72,130.45 -24,192.24l-223.16 1273.61 -600.74 0 223.12 -1273.61c10.28,-65.22 20.6,-116.7 20.6,-161.34 0,-85.82 -34.32,-127 -157.93,-127 -113.26,0 -250.59,51.47 -353.59,99.54l-257.45 1462.43 -165.87 0.01c333,480.27 888.14,794.87 1516.84,794.87 627.49,0 1181.68,-316.17 1514.91,-794.87l-81.63 0 96.11 -563.02 249.43 0c42.74,-155.91 65.73,-317.24 65.73,-486.7z"/>
  </g>
 </g>
</svg>
