<?xml version="1.0" encoding="UTF-8"?>
<!DOCTYPE svg PUBLIC "-//W3C//DTD SVG 1.1//EN" "http://www.w3.org/Graphics/SVG/1.1/DTD/svg11.dtd">
<!-- Creator: CorelDRAW SE (OEM-Version) -->
<svg xmlns="http://www.w3.org/2000/svg" xml:space="preserve" width="149.077mm" height="14.8mm" version="1.1" style="shape-rendering:geometricPrecision; text-rendering:geometricPrecision; image-rendering:optimizeQuality; fill-rule:evenodd; clip-rule:evenodd"
viewBox="0 0 13754.2 1365.48"
 xmlns:xlink="http://www.w3.org/1999/xlink">
 <defs>
  <style type="text/css">
   <![CDATA[
    .fil0 {fill:white}
   ]]>
  </style>
 </defs>
 <g id="Ebene_x0020_1">
  <metadata id="CorelCorpID_0Corel-Layer"/>
  <g>
   <path class="fil0" d="M13658.77 657.98l-446.13 0 1.45 -12.63c0,-131.94 37.78,-262.37 223,-262.37 183.8,0 221.68,126.29 221.68,262.37l0 12.63zm95.43 77.21l0 -46.29c0,-251.18 -96.84,-385.89 -317.06,-385.89 -218.81,0 -315.65,137.62 -315.65,376.02l0 53.28c0,254.04 84.06,370.48 343.65,370.48 113.57,0 209.04,-15.41 263.78,-28l0 -73.06c-70.24,11.18 -176.94,21.05 -261,21.05 -207.72,0 -255.36,-96.83 -255.36,-270.77l0 -16.82 541.64 0zm-1109.8 232.91c-57.61,28 -127.76,56.19 -207.72,56.19 -143.03,0 -203.4,-75.78 -203.4,-268l0 -94.11c0,-227.36 78.55,-280.64 230.08,-280.64 39.24,0 108.02,5.64 181.04,15.41l0 571.16zm91.19 116.52l0 -1084.61 -91.19 0 0 319.83c-75.79,-12.64 -133.3,-16.82 -186.67,-16.82 -193.54,0 -317.06,82.74 -317.06,359.16l0 93.92c0,244.18 96.84,346.56 280.64,346.56 93.92,0 172.62,-32.37 225.9,-61.7l0 43.42 88.38 0 0 0.23zm-972.32 -190.9l-91.16 0 0 190.9 91.16 0 0 -190.9zm-586.38 68.7c-42.24,26.82 -136.16,68.78 -231.54,68.78 -95.52,0 -154.35,-36.55 -154.35,-141.8l0 -26.6c0,-136.02 72.88,-161.3 256.68,-161.3l129.2 0 0 260.92zm92.61 122.2l0 -519.14c0,-179.58 -44.88,-262.46 -287.6,-262.46 -98.3,0 -158.53,14.09 -230.23,26.68l0 67.38c85.66,-9.86 148.67,-15.41 223.14,-15.41 169.72,0 202.08,35.14 202.08,183.8l0 64.6 -129.2 0c-223,0 -347.88,39.23 -347.88,232.86l0 21.18c0,151.58 78.42,218.82 227.36,218.82 113.57,0 200.62,-40.78 253.92,-72.88l0 54.74 88.42 -0.05 0 -0.14zm-945.68 0l0 -482.68c0,-195 -44.88,-298.92 -241.32,-298.92 -91.28,0 -178.26,36.55 -262.46,81.42l0 -61.7 -91.19 0 0 761.92 91.19 -0.05 0 -628.62c95.38,-44.87 180.9,-72.88 253.92,-72.88 122.11,0 157.21,56.06 157.21,218.91l0 482.73 92.65 0 0 -0.14zm-1098.61 -122.2c-42.1,26.82 -136.16,68.78 -231.54,68.78 -95.38,0 -154.35,-36.55 -154.35,-141.8l0 -26.6c0,-136.02 72.87,-161.3 256.81,-161.3l129.07 0 0 260.92zm92.65 122.2l0 -519.14c0,-179.58 -44.87,-262.46 -287.6,-262.46 -98.15,0 -158.53,14.09 -230.08,26.68l0 67.38c85.52,-9.86 148.66,-15.41 223,-15.41 169.71,0 202.08,35.14 202.08,183.8l0 64.6 -129.12 0c-222.99,0 -347.97,39.23 -347.97,232.86l0 21.18c0,151.58 78.56,218.82 227.36,218.82 113.57,0 200.62,-40.78 253.91,-72.88l0 54.74 88.42 -0.05 0 -0.14zm-878.35 1.37l0 -64.6c-33.68,4.18 -89.74,7.09 -127.65,7.09 -78.42,0 -91.2,-22.6 -91.2,-119.34l0.05 -509.27 218.81 0 0 -77.11 -218.81 0 0 -204.99 -91.2 0 0 204.86 -165.62 0 0 70.15 165.62 6.96 0 513.5c0,140.39 43.42,189.44 172.62,189.44 47.64,0.14 106.48,-9.72 137.39,-16.68l0 0zm-822.2 -1085.97l-93.92 0 0 173.93 93.92 0 0 -173.93zm-1.41 322.73l-92.65 0 0 761.92 92.65 -0.05 0 -761.87zm-476 761.87l36.19 -212.45 -226.59 0.05 -36.32 212.45 226.72 -0.05zm-296.5 -738.32l-233.09 0 -167.08 378.21c-31.05,70.01 -51.82,129.56 -77.69,196.8 -3.87,-67.38 -5.19,-132.07 -11.69,-196.8l-41.5 -378.21 -234.46 0 137.25 730.5 -19.5 38.74c-36.19,67.46 -55.69,90.69 -124.25,90.69 -36.32,0 -66.05,0 -129.56,-2.55l-24.64 143.75c49.19,10.37 125.57,18.06 204.63,18.06 202.08,0 260.32,-82.88 356.16,-277.29l365.43 -741.91zm-1019.33 0l-164.39 0 33.68 -186.44 -225.44 0 -33.69 186.44 -129.52 0 -23.32 148.94 125.57 11.68 -63.37 353.52c-5.09,27.28 -6.41,51.96 -6.41,73.83 0,112.85 58.33,169.72 189.08,169.72 76.51,0 147.7,-15.64 168.39,-20.82l22 -138.43c-18.18,1.32 -62.19,5.18 -102.38,5.18 -40.19,0 -54.37,-6.5 -54.37,-32.37 0,-10.45 1.32,-24.64 6.5,-51.96l66.05 -358.71 164.45 0 27.18 -160.57zm-760.19 -270.64l-233.14 0 -29.82 169.62 233.14 0 29.82 -169.62zm-53.05 270.64l-225.41 0 -128.21 738.32 225.36 0 128.25 -738.32zm-543.97 -270.64l-224.09 0 -177.44 1008.96 225.45 0 176.07 -1008.96zm-587.92 0l-233.14 0 -29.83 169.62 233.09 0 29.87 -169.62zm-53.2 270.64l-225.41 0 -128.21 738.32 225.41 0 128.21 -738.32zm-831.42 238.31c0,20.69 -2.64,46.69 -7.82,76.38l-16.82 90.56c-27.19,142.53 -63.51,179.95 -177.45,179.95 -42.69,0 -79.01,-2.55 -102.37,-5.19l73.87 -406.57c38.87,-18.06 98.38,-22 125.57,-22 74.01,0.14 105.02,23.45 105.02,86.87l0 0zm224.09 -10.36c0,-163.21 -85.52,-248.78 -269.46,-248.78 -53.06,0 -108.75,7.82 -155.4,27.19l49.19 -277.15 -225.27 0.05 -177.45 1007.5c139.9,15.64 217.59,20.82 321.16,20.82 248.64,0 382.02,-79.01 429.9,-334.16l16.82 -90.56c6.69,-37.55 10.51,-72.56 10.51,-104.93l0 0zm-1254.96 19.5c0,22 -1.32,45.33 -7.82,81.56l-15.5 80.24c-25.87,130.75 -60.87,176.13 -161.89,176.13 -76.52,0 -106.2,-25.87 -106.2,-91.88 0,-25.87 1.32,-51.83 7.81,-84.2l15.51 -80.24c24.63,-130.75 62.19,-176.08 160.57,-176.08 82.88,-0.22 107.52,32.28 107.52,94.48l0 0zm224.13 -2.64c0,-183.9 -112.71,-264.14 -312.15,-264.14 -213.77,0 -352.34,84.2 -400.22,327.65l-14.18 71.19c-9.14,44.01 -9.14,78.93 -9.14,113.89 0,176.21 106.2,264.14 309.51,264.14 216.27,0 358.71,-85.43 401.4,-328.97l14.32 -81.56c5.14,-27.05 10.46,-69.87 10.46,-102.2l0 0zm-1018.01 -82.88c0,-103.7 -44.01,-181.26 -199.44,-181.26 -68.56,0 -147.57,23.32 -239.64,80.24 -24.63,-50.56 -71.28,-80.29 -161.89,-80.29 -81.56,0 -165.76,28.5 -237.09,77.69l10.36 -58.24 -210.99 0.05 -130.89 738.18 226.77 0 97.06 -551.74c38.87,-18.18 90.7,-37.55 133.39,-37.55 46.68,0 59.65,15.5 59.65,47.87 0,16.83 -3.87,36.19 -7.82,60.87l-84.2 480.55 226.63 0 84.2 -480.55c3.96,-23.23 9.14,-49.19 9.14,-72.51 44.01,-22 95.88,-36.32 130.74,-36.32 51.83,0 64.69,16.82 64.69,49.19 0,16.83 -3.87,36.33 -7.68,59.56l-82.97 480.64 223.95 0 84.2 -468.86c6.63,-35 11.82,-72.52 11.82,-107.52z"/>
  </g>
 </g>
</svg>
