<?xml version="1.0" encoding="UTF-8"?>
<!DOCTYPE svg PUBLIC "-//W3C//DTD SVG 1.1//EN" "http://www.w3.org/Graphics/SVG/1.1/DTD/svg11.dtd">
<!-- Creator: CorelDRAW SE (OEM-Version) -->
<svg xmlns="http://www.w3.org/2000/svg" xml:space="preserve" width="36.4161mm" height="36.416mm" version="1.1" style="shape-rendering:geometricPrecision; text-rendering:geometricPrecision; image-rendering:optimizeQuality; fill-rule:evenodd; clip-rule:evenodd"
viewBox="0 0 1681.06 1681.06"
 xmlns:xlink="http://www.w3.org/1999/xlink">
 <defs>
  <style type="text/css">
   <![CDATA[
    .fil1 {fill:#003A80}
    .fil0 {fill:#676D71}
   ]]>
  </style>
 </defs>
 <g id="Ebene_x0020_1">
  <metadata id="CorelCorpID_0Corel-Layer"/>
  <g id="_1064772536">
   <path class="fil0" d="M423.97 801.96c22.73,-207.28 200.16,-369.14 414.97,-369.14l0 -78.73c-258.26,0 -471,197.12 -494.03,447.87l79.06 0z"/>
   <path class="fil0" d="M78.82 801.96c10.7,-188.56 88.41,-364.08 221.57,-498.28 143.97,-145.07 336.07,-224.96 541.02,-224.96l0 -78.71c-226.12,0 -438.07,88.18 -596.85,248.24 -147.88,149.05 -233.7,344.26 -244.55,553.72l78.82 0z"/>
   <path class="fil0" d="M859.58 1681.04c200.22,-4.24 393.13,-75.76 549.69,-203.18 -155.57,-126.6 -347.05,-197.95 -545.93,-203 99.7,11.04 177.3,97.64 177.3,202.82 0,106.58 -79.57,194.1 -181.07,203.36z"/>
   <path class="fil0" d="M642.85 1477.67c0,-105.47 78.02,-192.27 178.13,-202.92 -200,4.41 -392.56,75.85 -549.05,203.1 157.35,127.94 351.13,199.5 552.28,203.2 -101.65,-9.12 -181.37,-96.68 -181.37,-203.38z"/>
   <path class="fil1" d="M1043.85 1212.05c0,0 195.44,-101.62 216.29,-347.42l420.92 -0.01c-4.65,326 -219.22,551.42 -219.22,551.42 -127.18,-103.75 -239.22,-154.56 -417.99,-204z"/>
   <path class="fil1" d="M638.13 1212.05c0,0 -195.45,-101.62 -216.3,-347.42l-420.93 -0.01c4.64,326 219.24,551.42 219.24,551.42 127.16,-103.75 239.22,-154.56 417.99,-204z"/>
  </g>
 </g>
</svg>
