<?xml version="1.0" encoding="UTF-8"?>
<!DOCTYPE svg PUBLIC "-//W3C//DTD SVG 1.1//EN" "http://www.w3.org/Graphics/SVG/1.1/DTD/svg11.dtd">
<!-- Creator: CorelDRAW SE (OEM-Version) -->
<svg xmlns="http://www.w3.org/2000/svg" xml:space="preserve" width="40mm" height="46.2797mm" version="1.1" style="shape-rendering:geometricPrecision; text-rendering:geometricPrecision; image-rendering:optimizeQuality; fill-rule:evenodd; clip-rule:evenodd"
viewBox="0 0 2125.62 2459.32"
 xmlns:xlink="http://www.w3.org/1999/xlink">
 <defs>
  <style type="text/css">
   <![CDATA[
    .fil2 {fill:#003A80}
    .fil3 {fill:#676D71}
    .fil0 {fill:#E2001A}
    .fil1 {fill:white}
   ]]>
  </style>
 </defs>
 <g id="Ebene_x0020_1">
  <metadata id="CorelCorpID_0Corel-Layer"/>
  <g id="_999475048">
   <polygon class="fil0" points="-0,2104.39 -0,2459.31 2125.28,2459.31 2125.62,2104.39 "/>
   <g>
    <path class="fil1" d="M1419.92 2354.61l6.78 -39.65 -42.32 0 -6.78 39.65 42.32 0zm-50.53 -137.83l-43.53 0 -31.2 70.62c-5.8,13.05 -9.67,24.18 -14.51,36.75 -0.71,-12.58 -0.96,-24.67 -2.16,-36.75l-7.75 -70.62 -43.77 0 25.62 136.39 -3.62 7.27c-6.77,12.58 -10.4,16.92 -23.21,16.92 -6.78,0 -12.34,0 -24.18,-0.48l-4.6 26.84c9.19,1.94 23.46,3.39 38.21,3.39 37.72,0 48.6,-15.48 66.51,-51.75l68.21 -138.58zm-190.33 0l-30.72 0 6.28 -34.83 -42.07 0.01 -6.28 34.83 -24.18 0 -4.35 27.8 23.45 2.17 -11.84 66.02c-0.98,5.09 -1.21,9.68 -1.21,13.79 0,21.05 10.88,31.69 35.3,31.69 14.27,0 27.58,-2.9 31.44,-3.86l4.12 -25.87c-3.39,0.23 -11.61,0.97 -19.11,0.97 -7.49,0 -10.14,-1.22 -10.14,-6.05 0,-1.94 0.22,-4.6 1.19,-9.68l12.33 -66.98 30.73 0 5.07 -29.99zm-141.96 -50.55l-43.53 0 -5.56 31.69 43.53 0 5.56 -31.69zm-9.91 50.55l-42.07 0 -23.95 137.83 42.08 0 23.94 -137.83zm-101.56 -50.55l-41.84 0 -33.13 188.37 42.08 0.01 32.89 -188.38zm-109.79 0l-43.53 0 -5.56 31.69 43.53 0 5.56 -31.69zm-9.92 50.55l-42.08 0 -23.93 137.83 42.08 0 23.94 -137.83zm-155.25 44.49c0,3.86 -0.49,8.71 -1.46,14.27l-3.14 16.93c-5.08,26.6 -11.86,33.62 -33.13,33.62 -7.99,0 -14.76,-0.49 -19.11,-0.97l13.79 -75.94c7.25,-3.39 18.38,-4.11 23.46,-4.11 13.77,0 19.59,4.35 19.59,16.2l0 0zm41.84 -1.93c0,-30.47 -15.96,-46.42 -50.3,-46.42 -9.93,0 -20.32,1.45 -29.03,5.07l9.19 -51.75 -42.07 0 -33.14 188.15c26.12,2.89 40.63,3.86 59.98,3.86 46.42,0 71.33,-14.76 80.29,-62.39l3.14 -16.93c1.2,-7.03 1.93,-13.56 1.93,-19.6l0 0zm-231.92 3.63c0,4.11 -0.24,8.47 -1.46,15.24l-2.9 14.99c-4.83,24.43 -11.37,32.89 -30.23,32.89 -14.26,0 -19.83,-4.85 -19.83,-17.17 0,-4.83 0.23,-9.66 1.45,-15.71l2.9 -14.99c4.6,-24.43 11.62,-32.89 29.99,-32.89 15.47,-0.01 20.08,6.05 20.08,17.65l0 0zm41.84 -0.48c0,-34.35 -21.04,-49.34 -58.28,-49.34 -39.9,0 -65.77,15.72 -74.72,61.17l-2.66 13.3c-1.69,8.23 -1.69,14.77 -1.69,21.28 0,32.9 19.83,49.35 57.8,49.35 40.38,0 66.99,-15.96 74.97,-61.44l2.66 -15.23c0.96,-5.08 1.93,-13.07 1.93,-19.09l0 0zm-187.66 -15.48c0,-19.35 -8.22,-33.86 -37.25,-33.86 -12.81,0 -27.57,4.34 -44.73,14.99 -4.6,-9.44 -13.3,-14.99 -30.23,-14.99 -15.24,0 -30.95,5.32 -44.26,14.5l1.94 -10.87 -39.42 0 -24.43 137.83 42.32 0 18.15 -103.01c7.25,-3.37 16.91,-7.02 24.91,-7.02 8.7,0 11.13,2.9 11.13,8.95 0,3.15 -0.74,6.78 -1.46,11.36l-15.72 89.71 42.32 0.01 15.72 -89.71c0.72,-4.35 1.7,-9.18 1.7,-13.53 8.22,-4.12 17.89,-6.78 24.43,-6.78 9.67,0 12.08,3.15 12.08,9.19 0,3.15 -0.73,6.78 -1.45,11.13l-15.48 89.71 41.83 0 15.73 -87.54c1.2,-6.53 2.17,-13.53 2.17,-20.06z"/>
   </g>
   <polygon class="fil2" points="-0,2104.4 -0,2459.32 2125.29,2459.32 2125.62,2104.4 "/>
   <rect class="fil2" x="1641.65" y="2306.14" width="17.03" height="35.63"/>
   <g>
    <path class="fil1" d="M1572.93 2354.63l6.78 -39.66 -42.32 0 -6.78 39.66 42.32 0zm-123.67 -93.09c0,3.14 -0.48,7.5 -1.43,12.58l-48.34 -0.01 0.47 -1.94c2.61,-14.99 8.77,-29.03 28.91,-29.03 15.9,0.01 20.4,7.98 20.4,18.4l0 0zm38.87 2.17c0,-29.99 -15.88,-50.55 -55.45,-50.55 -39.35,0 -67.31,16.68 -75.15,65.05l-1.19 7.26c-1.41,8.47 -2.38,16.19 -2.38,23.21 0,34.83 20.64,49.58 59.51,49.58 24.17,0 43.59,-3.39 54.74,-6.05l4.5 -27.8c-25.35,1.68 -37.2,2.43 -51.2,2.43 -21.79,0 -27.73,-5.57 -27.73,-16.69 0,-3.15 0.71,-7.02 1.66,-13.07l88.63 0.01c2.85,-14.28 4.04,-23.72 4.04,-33.38l0 0zm-177.27 -44.98c-10.43,-2.9 -27.97,-5.56 -48.36,-5.56 -31.28,0 -61.86,6.77 -61.86,43.28 0,20.07 11.14,31.92 31.74,40.38l9.97 4.13c14.45,6.03 17.79,8.21 17.79,14.98 0,11.85 -10.89,14.03 -23.94,14.03 -19.91,0 -27.97,-1.7 -45.5,-2.66l-4.26 25.4c7.09,2.17 28.42,5.31 47.4,5.31 38.38,0 67.54,-11.84 67.54,-47.64 0,-19.34 -9.48,-29.99 -32.94,-39.42l-11.38 -4.59c-11.14,-4.61 -15.39,-7.02 -15.39,-12.82 0,-11.61 11.84,-12.1 21.79,-12.1 10.19,0 26.32,0.97 43.13,2.65l4.26 -25.37zm-151.43 -52.48l-42.68 0 -5.45 31.69 42.68 0 5.45 -31.69zm-9.72 50.55l-41.24 0 -23.46 137.84 41.24 0 23.46 -137.84zm-96.22 0l-30.1 0 6.16 -34.83 -41.24 0 -6.17 34.83 -23.69 0 -4.27 27.81 22.99 2.16 -11.62 66.02c-0.96,5.09 -1.19,9.68 -1.19,13.78 0,21.05 10.67,31.69 34.61,31.69 13.97,0 27.02,-2.9 30.81,-3.86l4.04 -25.87c-3.33,0.22 -11.38,0.96 -18.72,0.96 -7.35,0 -9.97,-1.21 -9.97,-6.04 0,-1.94 0.25,-4.6 1.2,-9.68l12.08 -66.99 30.1 -0.01 4.98 -29.98zm-132.25 -3.63c-14.69,0 -31.99,2.42 -47.4,14.98l1.9 -11.35 -38.15 -0.01 -23.94 137.84 41.48 0 17.29 -99.88c11.15,-3.63 27.97,-6.29 42.89,-6.29l5.93 -35.3zm-189.83 48.37c0,3.14 -0.48,7.5 -1.43,12.58l-48.34 -0.01 0.47 -1.94c2.6,-14.99 8.77,-29.03 28.92,-29.03 15.89,0.01 20.38,7.98 20.38,18.4l0 0zm38.86 2.17c0,-29.99 -15.86,-50.55 -55.44,-50.55 -39.35,0 -67.31,16.68 -75.15,65.05l-1.19 7.26c-1.42,8.47 -2.38,16.19 -2.38,23.21 0,34.83 20.64,49.58 59.5,49.58 24.17,0 43.6,-3.39 54.74,-6.05l4.51 -27.8c-25.35,1.68 -37.21,2.43 -51.2,2.43 -21.8,0 -27.73,-5.57 -27.73,-16.69 0,-3.15 0.7,-7.02 1.65,-13.07l88.65 0.01c2.85,-14.28 4.02,-23.72 4.02,-33.38l0 0zm-223 -2.17c0,4.83 -0.47,11.12 -3.78,29.26 -5.7,29.98 -13.98,35.55 -31.99,35.55 -6.4,0 -13.04,-0.72 -19.91,-2.17l13.04 -73.04c10.9,-4.35 17.78,-5.8 24.65,-5.8 12.06,-0.01 17.99,4.1 17.99,16.21l0 0zm41.47 -6.79c0,-27.09 -13.27,-41.59 -41.7,-41.59 -11.85,0 -26.79,3.63 -40.77,12.33l1.42 -8.7 -38.15 0.01 -32.24 186.94 41.24 0 8.3 -47.88c5.45,1.22 15.64,2.17 23.46,2.17 40.3,0 64.94,-13.53 73.95,-63.6 3.08,-17.65 4.5,-31.43 4.5,-39.66l0 0zm-334.15 99.88l39.11 0 36.26 -42.32 21.56 42.32 44.31 0 -35.07 -69.16 58.07 -68.68 -38.87 0.01 -33.41 40.39 -20.38 -40.39 -44.31 0 33.89 67.22 -61.15 70.61zm-64.93 -93.09c0,3.14 -0.48,7.5 -1.43,12.58l-48.34 -0.01 0.47 -1.94c2.6,-14.99 8.77,-29.03 28.92,-29.03 15.87,0.01 20.38,7.98 20.38,18.4l0 0zm38.86 2.17c0,-29.99 -15.88,-50.55 -55.46,-50.55 -39.35,0 -67.31,16.68 -75.14,65.05l-1.18 7.26c-1.42,8.47 -2.36,16.19 -2.36,23.21 0,34.83 20.61,49.58 59.48,49.58 24.17,0 43.61,-3.39 54.75,-6.05l4.5 -27.8c-25.35,1.68 -37.2,2.43 -51.18,2.43 -21.81,0 -27.73,-5.57 -27.73,-16.69 0,-3.15 0.71,-7.02 1.66,-13.07l88.64 0.01c2.85,-14.28 4.02,-23.72 4.02,-33.38z"/>
   </g>
  </g>
  <g>
   <path class="fil3" d="M584.09 923.19c26.16,-238.62 230.41,-424.94 477.7,-424.94l0 -90.63c-297.3,0 -542.19,226.92 -568.7,515.57l91.01 0z"/>
   <path class="fil3" d="M186.77 923.18c12.32,-217.07 101.77,-419.11 255.06,-573.6 165.73,-167 386.87,-258.97 622.8,-258.97l0 -90.61c-260.3,0 -504.29,101.51 -687.07,285.76 -170.24,171.58 -269.02,396.3 -281.51,637.41l90.73 0z"/>
   <path class="fil3" d="M1085.55 1935.14c230.48,-4.88 452.56,-87.21 632.79,-233.89 -179.09,-145.73 -399.5,-227.88 -628.45,-233.69 114.77,12.71 204.1,112.4 204.1,233.48 0,122.69 -91.6,223.43 -208.44,234.09z"/>
   <path class="fil3" d="M836.06 1701.04c0,-121.41 89.82,-221.34 205.06,-233.59 -230.23,5.08 -451.9,87.31 -632.04,233.8 181.13,147.28 404.2,229.65 635.77,233.92 -117.01,-10.5 -208.78,-111.3 -208.78,-234.13z"/>
   <path class="fil2" d="M1297.67 1395.26c0,0 224.99,-116.98 248.98,-399.93l484.55 -0.01c-5.36,375.28 -252.36,634.77 -252.36,634.77 -146.4,-119.43 -275.38,-177.92 -481.17,-234.83z"/>
   <path class="fil2" d="M830.63 1395.26c0,0 -224.99,-116.98 -248.99,-399.93l-484.56 -0.01c5.35,375.28 252.37,634.77 252.37,634.77 146.39,-119.43 275.38,-177.92 481.18,-234.83z"/>
  </g>
 </g>
</svg>
