<?xml version="1.0" encoding="UTF-8"?>
<!DOCTYPE svg PUBLIC "-//W3C//DTD SVG 1.1//EN" "http://www.w3.org/Graphics/SVG/1.1/DTD/svg11.dtd">
<!-- Creator: CorelDRAW SE (OEM-Version) -->
<svg xmlns="http://www.w3.org/2000/svg" xml:space="preserve" width="163.478mm" height="14.8953mm" version="1.1" style="shape-rendering:geometricPrecision; text-rendering:geometricPrecision; image-rendering:optimizeQuality; fill-rule:evenodd; clip-rule:evenodd"
viewBox="0 0 14038.28 1279.1"
 xmlns:xlink="http://www.w3.org/1999/xlink">
 <defs>
  <style type="text/css">
   <![CDATA[
    .fil0 {fill:white}
   ]]>
  </style>
 </defs>
 <g id="Ebene_x0020_1">
  <metadata id="CorelCorpID_0Corel-Layer"/>
  <g id="_992480912">
   <g>
    <path class="fil0" d="M7227.48 520.62c0,16.72 -2.57,39.99 -7.63,67.05l-257.88 0 2.52 -10.34c13.89,-79.97 46.78,-154.77 154.16,-154.77 84.79,-0.01 108.83,42.51 108.83,98.06l0 0zm207.32 11.58c0,-159.97 -84.75,-269.62 -295.82,-269.62 -209.89,0 -359.05,88.97 -400.77,347.01l-6.34 38.69c-7.59,45.17 -12.66,86.45 -12.66,123.8 0,185.81 110.01,264.49 317.33,264.49 128.96,0 232.61,-18.06 292,-32.26l24.06 -148.34c-135.26,9 -198.49,12.91 -273.06,12.91 -116.31,0 -148,-29.74 -148,-89.02 0,-16.77 3.82,-37.44 8.89,-69.66l472.85 0c15.13,-76.12 21.51,-126.49 21.51,-178l0 0zm-945.55 -239.95c-55.73,-15.49 -149.27,-29.69 -257.97,-29.69 -166.9,0 -329.97,36.08 -329.97,230.89 0,107.08 59.42,170.31 169.38,215.39l53.08 22.02c77.16,32.22 94.88,43.85 94.88,79.97 0,63.18 -58.14,74.82 -127.71,74.82 -106.2,0 -149.19,-9.04 -242.74,-14.2l-22.72 135.44c37.9,11.64 151.69,28.36 252.85,28.36 204.75,0 360.24,-63.14 360.24,-254.11 0,-103.22 -50.51,-159.97 -175.63,-210.3l-60.75 -24.45c-59.42,-24.59 -82.09,-37.44 -82.09,-68.39 0,-61.91 63.09,-64.52 116.26,-64.52 54.37,0 140.32,5.16 230.09,14.15l22.8 -135.37zm-807.9 -279.96l-227.57 0 -29.06 169.01 227.61 0.01 29.02 -169.02zm-51.85 269.63l-220.02 0 -125.14 735.3 220.02 0 125.14 -735.3zm-513.23 0l-160.55 0 32.83 -185.76 -220.02 -0.01 -32.83 185.76 -126.37 0.01 -22.76 148.39 122.6 11.54 -61.96 352.16c-5.07,27.1 -6.29,51.64 -6.29,73.52 0,112.26 56.93,169.01 184.6,169.01 74.55,0 144.05,-15.49 164.32,-20.63l21.43 -138.01c-17.61,1.25 -60.66,5.11 -99.85,5.11 -39.19,0 -53.12,-6.43 -53.12,-32.22 0,-10.34 1.34,-24.54 6.38,-51.64l64.44 -357.32 160.54 0.01 26.63 -159.93zm-705.49 -19.34c-78.36,0 -170.63,12.86 -252.85,79.93l10.16 -60.57 -203.52 0 -127.67 735.3 221.16 0 92.27 -532.77c59.46,-19.41 149.23,-33.6 228.88,-33.6l31.56 -188.28zm-1012.63 258.04c0,16.72 -2.52,39.99 -7.59,67.05l-257.88 0 2.52 -10.34c13.89,-79.97 46.78,-154.77 154.25,-154.77 84.7,-0.01 108.69,42.51 108.69,98.06l0 0zm207.36 11.58c0,-159.97 -84.72,-269.62 -295.82,-269.62 -209.89,0 -359.05,88.97 -400.81,347.01l-6.29 38.69c-7.63,45.17 -12.7,86.45 -12.7,123.8 0,185.81 110.05,264.49 317.38,264.49 128.91,0 232.57,-18.06 292,-32.26l24.02 -148.34c-135.21,9 -198.44,12.91 -273.01,12.91 -116.31,0 -147.91,-29.74 -147.91,-89.02 0,-16.77 3.73,-37.44 8.79,-69.66l472.85 0c15.16,-76.12 21.49,-126.49 21.49,-178l0 0zm-1189.62 -11.58c0,25.79 -2.52,59.28 -20.24,156.06 -30.36,159.93 -74.59,189.62 -170.63,189.62 -34.13,0 -69.57,-3.91 -106.24,-11.64l69.55 -389.61c58.19,-23.19 94.79,-30.92 131.48,-30.92 64.48,-0.02 96.08,21.91 96.08,86.48l0 0zm221.21 -36.17c0,-144.52 -70.78,-221.89 -222.45,-221.89 -63.28,0 -142.89,19.36 -217.44,65.78l7.54 -46.41 -203.55 -0.01 -171.9 997.18 219.98 0 44.23 -255.42c29.1,6.47 83.48,11.58 125.14,11.58 214.96,0 346.44,-72.16 394.45,-339.27 16.45,-94.18 24,-167.66 24,-211.55l0 0zm-1782.53 532.77l208.66 0 193.39 -225.75 115.01 225.75 236.39 0 -187.08 -368.93 309.75 -366.37 -207.32 0 -178.26 215.44 -108.71 -215.44 -236.39 0 180.79 358.59 -326.22 376.71zm-346.35 -496.6c0,16.72 -2.57,39.99 -7.63,67.05l-257.88 0 2.47 -10.34c13.93,-79.97 46.83,-154.77 154.3,-154.77 84.7,-0.01 108.74,42.51 108.74,98.06l0 0zm207.32 11.58c0,-159.97 -84.72,-269.62 -295.84,-269.62 -209.85,0 -359.01,88.97 -400.77,347.01l-6.29 38.69c-7.54,45.17 -12.66,86.45 -12.66,123.8 0,185.81 109.97,264.49 317.29,264.49 128.96,0 232.61,-18.06 292.05,-32.26l24.02 -148.34c-135.21,9 -198.44,12.91 -273.01,12.91 -116.35,0 -147.91,-29.74 -147.91,-89.02 0,-16.77 3.77,-37.44 8.84,-69.66l472.82 0c15.16,-76.12 21.45,-126.49 21.45,-178z"/>
   </g>
   <path class="fil0" d="M13949.46 612.41l-415.23 0 1.35 -11.76c0,-122.8 35.16,-244.2 207.55,-244.2 171.08,0 206.33,117.54 206.33,244.2l0 11.76zm88.82 71.86l0 -43.08c0,-233.79 -90.13,-359.16 -295.1,-359.16 -203.66,0 -293.79,128.09 -293.79,349.98l0 49.59c0,236.45 78.24,344.82 319.85,344.82 105.71,0 194.56,-14.34 245.51,-26.06l0 -68c-65.37,10.41 -164.69,19.59 -242.92,19.59 -193.33,0 -237.68,-90.12 -237.68,-252.02l0 -15.65 504.13 0zm-1032.93 216.78c-53.62,26.06 -118.91,52.3 -193.33,52.3 -133.13,0 -189.31,-70.54 -189.31,-249.44l0 -87.59c0,-211.62 73.11,-261.21 214.15,-261.21 36.52,0 100.54,5.25 168.5,14.34l0 531.6zm84.88 108.45l0 -1009.49 -84.88 0 0 297.68c-70.54,-11.76 -124.07,-15.65 -173.75,-15.65 -180.13,0 -295.1,77.01 -295.1,334.28l0 87.42c0,227.27 90.13,322.56 261.21,322.56 87.42,0 160.67,-30.12 210.26,-57.42l0 40.41 82.26 0.21zm-904.98 -177.68l-84.84 0 0 177.68 84.84 0 0 -177.68zm-545.77 63.94c-39.31,24.96 -126.73,64.02 -215.51,64.02 -88.9,0 -143.66,-34.02 -143.66,-131.98l0 -24.76c0,-126.6 67.83,-150.13 238.91,-150.13l120.26 0 0 242.85zm86.2 113.74l0 -483.19c0,-167.14 -41.77,-244.28 -267.68,-244.28 -91.49,0 -147.55,13.11 -214.29,24.83l0 62.71c79.72,-9.18 138.37,-14.34 207.68,-14.34 157.96,0 188.09,32.71 188.09,171.08l0 60.13 -120.26 0c-207.55,0 -323.79,36.51 -323.79,216.73l0 19.72c0,141.08 72.99,203.66 211.62,203.66 105.7,0 186.73,-37.96 236.33,-67.83l0 50.95 82.3 -0.17zm-880.18 0l0 -449.25c0,-181.49 -41.77,-278.22 -224.61,-278.22 -84.96,0 -165.91,34.02 -244.28,75.78l0 -57.42 -84.88 0 0 709.15 84.88 -0.04 0 -585.08c88.77,-41.76 168.37,-67.83 236.33,-67.83 113.65,0 146.33,52.18 146.33,203.75l0 449.29 86.23 -0.13zm-1022.53 -113.74c-39.18,24.96 -126.73,64.02 -215.51,64.02 -88.77,0 -143.66,-34.02 -143.66,-131.98l0 -24.76c0,-126.6 67.82,-150.13 239.03,-150.13l120.14 0 0 242.85zm86.23 113.74l0 -483.19c0,-167.14 -41.76,-244.28 -267.68,-244.28 -91.35,0 -147.55,13.11 -214.15,24.83l0 62.71c79.6,-9.18 138.37,-14.34 207.55,-14.34 157.95,0 188.09,32.71 188.09,171.08l0 60.13 -120.18 0c-207.55,0 -323.87,36.51 -323.87,216.73l0 19.72c0,141.08 73.12,203.66 211.62,203.66 105.7,0 186.73,-37.96 236.32,-67.83l0 50.95 82.3 -0.17zm-817.51 1.27l0 -60.13c-31.35,3.89 -83.53,6.6 -118.81,6.6 -72.99,0 -84.88,-21.03 -84.88,-111.08l0.04 -474 203.66 0 0 -71.77 -203.66 0 0 -190.79 -84.88 0 0 190.67 -154.15 0 0 65.29 154.15 6.47 0 477.94c0,130.66 40.41,176.32 160.67,176.32 44.34,0.13 99.11,-9.05 127.87,-15.53zm-765.25 -1010.76l-87.42 0 0 161.89 87.42 0 0 -161.89zm-1.31 300.38l-86.23 0 0 709.15 86.23 -0.04 0 -709.11zm-443.03 709.11l33.69 -197.74 -210.89 0.04 -33.81 197.74 211.01 -0.04z"/>
  </g>
 </g>
</svg>
